<?xml version="1.0" standalone="no"?><!DOCTYPE svg PUBLIC "-//W3C//DTD SVG 1.1//EN" "http://www.w3.org/Graphics/SVG/1.1/DTD/svg11.dtd"><svg t="1755588365556" class="icon" viewBox="0 0 1262 1024" version="1.1" xmlns="http://www.w3.org/2000/svg" p-id="19766" xmlns:xlink="http://www.w3.org/1999/xlink" width="246.484375" height="200"><path d="M1170.176 985.6v38.4h-223.232v-38.4H302.08v38.4h-223.232v-38.4h-78.848V653.056h1262.848v332.032h-92.416v0.512zM315.648 729.344h-236.8v26.112h236.8v-26.112z m0 77.056h-236.8v26.112h236.8V806.4z m0 77.312h-236.8v25.6h236.8v-25.6zM631.296 729.344h-236.8v26.112H631.296v-26.112z m0 77.056h-236.8v26.112H631.296V806.4z m0 77.312h-236.8v25.6H631.296v-25.6zM157.696 499.2h262.912v-51.2h144.64s12.288-39.68 36.352-53.248c21.76-12.032 55.808 1.792 55.808 1.792l13.312 51.2h157.952v-51.2l92.16 51.2h144.64v51.2h105.216v115.2H118.272c0 0.256-44.544-62.976 39.424-114.944z m822.016 76.544c17.92 0 32.768-14.08 32.768-31.744s-14.848-31.744-32.768-31.744c-17.92 0-32.768 14.08-32.768 31.744s14.592 31.744 32.768 31.744z m-118.528 0c17.92 0 32.768-14.08 32.768-31.744s-14.848-31.744-32.768-31.744c-17.92 0-32.768 14.08-32.768 31.744s14.848 31.744 32.768 31.744z m-118.272 0c17.92 0 32.768-14.08 32.768-31.744s-14.848-31.744-32.768-31.744-32.768 14.08-32.768 31.744 14.592 31.744 32.768 31.744z m-565.504 0c11.008 0 19.968-8.448 19.968-19.2s-8.704-19.2-19.968-19.2-19.968 8.448-19.968 19.2 8.96 19.2 19.968 19.2zM368.384 192v102.4h26.112v166.912h-104.96V294.4h26.112V192h52.736z m657.408 115.2h-18.688l-31.744 38.4-31.744-39.168h-25.856L885.504 345.6l-32.256-39.424h-25.344L795.648 345.6l-32.512-39.424h-25.344L705.28 345.6l-32.256-39.424h-25.6l-32.256 39.168-31.744-38.912c-12.288 0-21.76 0.256-26.368 0.256l-31.488 38.4-31.488-38.4h-34.048V140.544h-197.12v307.2C160.256 448.768 118.272 486.4 118.272 486.4l-92.16-230.144V0h1091.84v153.6h-52.736l-39.424 153.6z m-65.536-166.912H538.88v103.424h421.376V140.288z" p-id="19767" fill="#1296db"></path></svg>