<?xml version="1.0" standalone="no"?><!DOCTYPE svg PUBLIC "-//W3C//DTD SVG 1.1//EN" "http://www.w3.org/Graphics/SVG/1.1/DTD/svg11.dtd"><svg t="1755747912836" class="icon" viewBox="0 0 1024 1024" version="1.1" xmlns="http://www.w3.org/2000/svg" p-id="5463" xmlns:xlink="http://www.w3.org/1999/xlink" width="200" height="200"><path d="M832 512h-24.32c-24.32 0-46.72 13.44-57.6 35.2l-9.6 19.84a15.36 15.36 0 0 1-14.08 8.96H704V288c0-17.92-14.08-32-32-32h-64V160c0-17.92-14.08-32-32-32h-32v-32c0-17.92-14.08-32-32-32s-32 14.08-32 32V128H448c-17.92 0-32 14.08-32 32V256h-64c-17.92 0-32 14.08-32 32V576h-22.4a15.36 15.36 0 0 1-14.08-8.96l-9.6-19.84c-10.88-21.76-33.28-35.2-57.6-35.2H192c-35.2 0-64 28.8-64 64v128c0 35.2 28.8 64 64 64h64v64c0 35.2 28.8 64 64 64h384c35.2 0 64-28.8 64-64v-64h64c35.2 0 64-28.8 64-64V576c0-35.2-28.8-64-64-64zM480 192h64v128h-64V192zM384 320h32v32c0 17.92 14.08 32 32 32h16l10.24 39.68c3.2 14.08 16 24.32 30.72 24.32h14.08c14.72 0 27.52-10.24 30.72-24.32L560 384H576c17.92 0 32-14.08 32-32V320h32v256H384V320z m320 512H320v-64h384v64z m128-128H192V576h24.32l10.24 19.84c13.44 26.88 40.96 44.16 71.04 44.16h428.8c30.08 0 57.6-17.28 71.04-44.16l10.24-19.84H832v128z" p-id="5464" fill="#e74c3c"></path></svg>