<?xml version="1.0" standalone="no"?><!DOCTYPE svg PUBLIC "-//W3C//DTD SVG 1.1//EN" "http://www.w3.org/Graphics/SVG/1.1/DTD/svg11.dtd"><svg t="1755586696393" class="icon" viewBox="0 0 1024 1024" version="1.1" xmlns="http://www.w3.org/2000/svg" p-id="8942" xmlns:xlink="http://www.w3.org/1999/xlink" width="200" height="200"><path d="M0 608v320h1024V608z m979.2 275.2H44.8V652.8h934.4z" fill="#e74c3c" p-id="8943"></path><path d="M397.44 96v222.4l-6.4-1.92h-38.4V140.8H223.36V648h-44.8V96h218.88zM391.04 461.12l6.4-1.92V648h-44.8V461.12h38.4z" fill="#e74c3c" p-id="8944"></path><path d="M397.44 271.68h-44.8v44.8h38.4l6.4 1.92 64.64 18.88v103.04l-64.64 18.88-6.4 1.92h-38.4v44.8h44.8l109.44-32v-170.285714zM905.291429 505.92H531.611429v142.205714h44.8v-97.405714H898.285714l80.914286 25.954286v71.451428H1024V544l-118.708571-38.08zM44.8 461.12v-51.931429h166.297143v-44.8H0v141.531429h211.097143v-44.8H44.8zM366.457143 175.28h538.834286v44.8H366.457143z" fill="#e74c3c" p-id="8945"></path><path d="M839.68 179.097143v144.514286h-44.8V179.097143z" fill="#e74c3c" p-id="8946"></path><path d="M737.291429 287.84v157.062857h160V287.84z m115.211428 112.274286h-70.411428v-67.428572h70.411428z" fill="#e74c3c" p-id="8947"></path><path d="M304.64 340.8m1.714286 0l92.571428 0q1.714286 0 1.714286 1.714286l0 92.571428q0 1.714286-1.714286 1.714286l-92.571428 0q-1.714286 0-1.714286-1.714286l0-92.571428q0-1.714286 1.714286-1.714286Z" fill="#e74c3c" p-id="8948"></path><path d="M153.268571 739.874286v160h44.8V784.662857h70.4v115.211429h44.8v-160h-160zM432 739.874286v160h44.788571V784.662857h70.411429v115.211429H592v-160H432zM710.731429 739.874286v160h44.788571V784.662857h70.4v115.211429h44.811429v-160h-160z" fill="#e74c3c" p-id="8949"></path></svg>